<svg xmlns="http://www.w3.org/2000/svg" viewBox="0 0 44 44" fill="none" id="twitter-transparent">
    <path fill-rule="evenodd" clip-rule="evenodd" d="M22 0C9.84974 0 0 9.84974 0 22C0 34.1503 9.84974 44 22 44C34.1503 44 44 34.1503 44 22C44 9.84974 34.1503 0 22 0ZM20.6302 18.5514C21.0242 18.5991 21.3651 18.2781 21.3411 17.8819C21.2026 15.9088 22.4183 14.1067 24.3419 13.4076C25.0497 13.159 26.25 13.1279 27.0349 13.3454C27.3426 13.4387 27.9274 13.7494 28.3429 14.029L28.3759 14.0514C28.8311 14.361 29.4033 14.4443 29.9279 14.2776C30.3896 14.1378 31.0051 13.9047 31.2821 13.7494C31.5437 13.6096 31.7745 13.5319 31.7745 13.5785C31.7745 13.8426 31.2052 14.7437 30.7281 15.2408C30.0818 15.9399 30.2665 16.0021 31.5745 15.536C32.3593 15.2719 32.3747 15.2719 32.2208 15.5671C32.1285 15.7224 31.6514 16.2662 31.1436 16.7633C30.2818 17.6178 30.2357 17.711 30.2357 18.4256C30.2357 19.5287 29.7125 21.8279 29.1893 23.0863C28.2198 25.4478 26.1423 27.8869 24.0649 29.1142C21.1411 30.8387 17.2477 31.2737 13.97 30.2638C12.8774 29.922 11 29.052 11 28.8967C11 28.8501 11.5694 28.7879 12.2619 28.7724C13.7084 28.7413 15.1549 28.3374 16.386 27.6228C16.7141 27.4264 16.6625 26.936 16.3007 26.8123L16.2629 26.7994C14.9087 26.3333 13.693 25.2613 13.3852 24.2515C13.2929 23.9253 13.3237 23.9097 14.1854 23.9097L14.2437 23.9087C14.4502 23.9051 14.5106 23.6253 14.3239 23.5369C13.4314 23.0863 12.6158 22.3251 12.2157 21.5483C12.0543 21.2396 11.8694 20.6704 11.7543 20.2042C11.6344 19.7185 11.9108 19.4779 12.385 19.6374C13.4468 20.0258 13.5853 19.9326 12.9697 19.2801C11.8156 18.0994 11.4617 16.3438 12.0156 14.6815C12.137 14.3356 12.5777 14.2345 12.8377 14.493L13.2929 14.9456C15.3703 16.9808 17.8171 18.1926 20.6178 18.5499L20.6302 18.5514Z" fill="currentColor"></path>
</svg>