<svg width="200" height="84" viewBox="0 0 200 84" fill="none" xmlns="http://www.w3.org/2000/svg">
<g clip-path="url(#clip0_13611_3297)">
<path d="M69.6151 34.4787H70.6067V49.4486C70.6067 52.7632 68.0052 55 63 55V51.8518C65.1491 51.8518 66.2233 50.9681 66.2233 49.1723V34.4787H69.6151ZM66.704 32.0478C66.4761 31.8303 66.2947 31.5707 66.1708 31.2834C66.047 30.9962 65.9833 30.6879 65.9833 30.3763C65.9833 30.0646 66.047 29.7564 66.1708 29.4691C66.2947 29.1818 66.4761 28.9223 66.704 28.7047C66.9268 28.4821 67.1925 28.3049 67.4866 28.184C67.7799 28.0622 68.0955 28 68.4146 28C68.7336 28 69.0492 28.0622 69.3434 28.1831C69.6375 28.3041 69.9032 28.4813 70.126 28.7039C70.3539 28.9214 70.5353 29.181 70.6592 29.4683C70.783 29.7555 70.8466 30.0638 70.8466 30.3754C70.8466 30.6871 70.783 30.9953 70.6592 31.2826C70.5353 31.5699 70.3539 31.8294 70.126 32.047C69.9032 32.2696 69.6375 32.4468 69.3434 32.5678C69.0492 32.6887 68.7336 32.7509 68.4146 32.7509C68.0955 32.7509 67.7799 32.6887 67.4858 32.5678C67.1916 32.4468 66.9259 32.2696 66.7032 32.047L66.704 32.0478Z" fill="#7A8AA0"/>
<path d="M83.2977 34.4786H87.6811V48.6472H83.2977V46.5759C82.6338 47.3293 81.8082 47.9299 80.8803 48.3364C79.9515 48.743 78.9427 48.9446 77.9262 48.9269C74.6444 48.9269 72.4669 46.9387 72.4669 43.2101V34.4811H76.852V41.5806C76.852 44.035 77.8419 45.2815 79.8508 45.2815C81.8598 45.2815 83.2994 43.8174 83.2994 40.9162L83.2977 34.4778V34.4786Z" fill="#7A8AA0"/>
<path d="M115.034 39.9283V48.6556H110.652V41.4193C110.652 39.0438 109.719 37.8561 107.851 37.8578C106.041 37.8578 104.486 39.3479 104.486 42.2214V48.6565H100.102V41.4201C100.102 39.0447 99.169 37.857 97.3028 37.8586C95.4934 37.8586 93.9376 39.3488 93.9376 42.2223V48.6573H89.5534V34.4862H93.9376V36.5298C95.3799 34.9834 97.0766 34.2098 99.0856 34.2098C101.63 34.2098 103.274 35.1766 104.034 37.1102C105.591 35.1707 107.458 34.2014 109.634 34.2014C113 34.2014 115.035 35.9687 115.035 39.9275L115.034 39.9283Z" fill="#7A8AA0"/>
<path d="M131.331 36.1359C132.745 37.4613 133.452 39.2555 133.452 41.5495C133.452 43.8434 132.745 45.6401 131.331 46.9354C129.917 48.2608 128.136 48.9236 125.957 48.9236C124.034 48.9236 122.478 48.3163 121.29 47.1008V54.7253H116.907V34.4786H121.29V36.0015C122.478 34.7877 124.034 34.1796 125.957 34.1787C128.135 34.1737 129.917 34.8364 131.331 36.1359ZM128.871 41.5495C128.871 39.0086 127.259 37.3236 125.082 37.3236C122.904 37.3236 121.291 38.9254 121.291 41.5495C121.291 44.1735 122.933 45.7754 125.082 45.7754C127.231 45.7754 128.871 44.0904 128.871 41.5495Z" fill="#7A8AA0"/>
<path d="M149 44.7314V48.077H135.297V44.7314H149Z" fill="#7A8AA0"/>
</g>
<defs>
<clipPath id="clip0_13611_3297">
<rect width="86" height="27" fill="white" transform="translate(63 28)"/>
</clipPath>
</defs>
</svg>
