<svg width="200" height="84" viewBox="0 0 200 84" fill="none" xmlns="http://www.w3.org/2000/svg">
<path d="M61.3321 29.4466L61.6704 29.6336L62.0087 29.4447V29.0296L61.6704 28.8426L61.3321 29.0296V29.4466Z" fill="#7A8AA0"/>
<path d="M74.8887 53.0034L74.5504 52.8164V52.4012L74.8887 52.2142L75.2251 52.4012V52.8164L74.8887 53.0034Z" fill="#7A8AA0"/>
<path d="M70.3535 40.0219L70.6918 40.2089L71.0283 40.02V39.6048L70.6918 39.4178L70.3535 39.6048V40.0219Z" fill="#7A8AA0"/>
<path d="M52.7016 40.2089L52.3633 40.0219V39.6048L52.7016 39.4178L53.0399 39.6048V40.02L52.7016 40.2089Z" fill="#7A8AA0"/>
<path d="M48.1213 52.8164L48.4596 53.0034L48.7979 52.8164V52.4012L48.4596 52.2142L48.1213 52.4012V52.8164Z" fill="#7A8AA0"/>
<path d="M61.6704 55.3427L61.3321 55.1557V54.7405L61.6704 54.5535L62.0087 54.7405V55.1557L61.6704 55.3427Z" fill="#7A8AA0"/>
<path fill-rule="evenodd" clip-rule="evenodd" d="M61.7121 25.6765L64.6447 27.4168V30.8397L62.1262 32.3096V44.198L67.7494 40.9587V38.1417L70.6926 36.4352L73.6173 38.1426V41.4904L70.6926 43.189L68.2001 41.7513L62.5947 44.9803L72.4331 50.6511L74.8888 49.2303L77.8217 50.9285V54.2852L74.8888 55.9834L71.9538 54.2853V51.4271L62.1262 45.7626V51.8158L64.6372 53.2677V56.6203L61.6673 58.3234L58.7712 56.6167V53.2677L61.2145 51.8549V45.7753L51.3926 51.4334V54.2853L48.4596 55.9835L45.5266 54.2853V50.9285L48.4596 49.2303L50.9187 50.6542L60.7686 44.9801L55.1758 41.7564L52.7016 43.189L49.7686 41.4908V38.1415L52.7016 36.4433L55.6345 38.1415V40.9686L61.2145 44.1848V32.3056L58.7712 30.8356V27.4164L61.7121 25.6765ZM59.6829 27.9363V30.3202L61.6739 31.518L63.733 30.3162V27.9359L61.7114 26.7362L59.6829 27.9363ZM72.8655 53.7595V51.4542L74.8886 50.2837L76.91 51.4541V53.7596L74.8886 54.93L72.8655 53.7595ZM68.6611 38.6669V40.9647L70.691 42.1356L72.7056 40.9656V38.666L70.691 37.4899L68.6611 38.6669ZM50.6803 38.6671L52.7016 37.4968L54.7229 38.6671V40.9652L52.7016 42.1356L50.6803 40.9652V38.6671ZM46.4383 51.4541V53.7597L48.4596 54.93L50.4809 53.7597V51.4541L48.4596 50.2838L46.4383 51.4541ZM59.6829 56.0958V53.7937L61.7042 52.6249L63.7255 53.7937V56.0922L61.6735 57.2689L59.6829 56.0958Z" fill="#7A8AA0"/>
<path d="M85.0947 49.8637C84.4715 49.6727 83.8953 49.3542 83.4031 48.9287L83.9331 47.8329C84.3898 48.2134 84.912 48.5086 85.4743 48.7043C86.0507 48.8901 86.6539 48.9804 87.2598 48.9717C88.0116 48.9717 88.598 48.8296 89.0077 48.5472C89.2058 48.416 89.3665 48.2363 89.4745 48.0254C89.5825 47.8145 89.634 47.5794 89.6242 47.3429C89.6329 47.1411 89.5835 46.9411 89.482 46.7662C89.3805 46.5913 89.2309 46.4489 89.0509 46.3556C88.4695 46.0716 87.8526 45.866 87.2166 45.7441C86.5399 45.6086 85.8773 45.4108 85.2375 45.1532C84.7622 44.9623 84.3451 44.6517 84.0271 44.2518C83.7226 43.8316 83.5684 43.322 83.5892 42.8044C83.5785 42.245 83.7412 41.6959 84.0553 41.2318C84.3891 40.7622 84.8489 40.3954 85.3822 40.1734C86.0124 39.9104 86.6913 39.783 87.3745 39.7994C88.0545 39.7953 88.7305 39.9047 89.3742 40.1229C89.9534 40.3123 90.4808 40.6323 90.9154 41.0579L90.406 42.1443C89.9754 41.7834 89.4893 41.4936 88.9664 41.286C88.4644 41.0974 87.9317 41.0023 87.3951 41.0055C86.6697 41.0055 86.0989 41.157 85.6829 41.4599C85.4819 41.6019 85.3196 41.7915 85.2107 42.0116C85.1018 42.2316 85.0496 42.4752 85.0589 42.7203C85.0487 42.9269 85.0937 43.1326 85.1895 43.3162C85.2852 43.4999 85.4283 43.655 85.604 43.7656C85.9674 44.0012 86.5506 44.215 87.3538 44.407C88.0482 44.5557 88.7304 44.7557 89.3949 45.0054C89.8745 45.1825 90.303 45.474 90.6429 45.8544C90.9654 46.2509 91.1312 46.751 91.109 47.2606C91.1194 47.8107 90.9564 48.3502 90.6429 48.8034C90.3064 49.2644 89.8439 49.6195 89.3103 49.8263C88.6547 50.0795 87.9554 50.2015 87.2523 50.1853C86.5206 50.1915 85.7924 50.0829 85.0947 49.8637Z" fill="#7A8AA0"/>
<path d="M92.9302 50.0656V39.9003H94.4055V50.0619L92.9302 50.0656Z" fill="#7A8AA0"/>
<path d="M105.271 39.9003H106.447V50.0619H105.115L105.128 42.7109L102.121 48.4331H101.119L98.0931 42.7839L98.1081 50.0619H96.7756V39.9003H97.9653L101.634 46.9334L105.271 39.9003Z" fill="#7A8AA0"/>
<path fill-rule="evenodd" clip-rule="evenodd" d="M108.812 39.9003H112.997C114.069 39.9003 114.9 40.1646 115.491 40.6932C116.083 41.2218 116.379 41.9698 116.38 42.9372C116.38 43.8959 116.084 44.6439 115.491 45.1812C114.899 45.7185 114.067 45.9872 112.997 45.9872H110.289V50.0525H108.812V39.9003ZM112.839 44.8016C114.255 44.8016 114.963 44.182 114.961 42.9428C114.96 41.7036 114.253 41.0897 112.839 41.1009H110.289V44.8053L112.839 44.8016Z" fill="#7A8AA0"/>
<path d="M118.158 50.0656V39.9003H119.636V48.8221H124.537V50.0619L118.158 50.0656Z" fill="#7A8AA0"/>
<path d="M132.22 39.9003L128.193 45.3233V50.0656H126.716V45.3233L122.688 39.9003H124.379L127.462 44.0947L130.544 39.9003H132.22Z" fill="#7A8AA0"/>
<path d="M144.219 39.9003H145.723L141.276 50.0656H140.028L135.575 39.9003H137.109L140.663 48.1882L144.219 39.9003Z" fill="#7A8AA0"/>
<path d="M148.497 49.5458C147.774 49.1216 147.195 48.4918 146.835 47.7375C146.431 46.8742 146.232 45.9296 146.255 44.9774C146.232 44.0251 146.431 43.0806 146.835 42.2173C147.194 41.4644 147.773 40.8368 148.497 40.4165C149.275 39.9832 150.157 39.7668 151.049 39.79C151.703 39.7846 152.354 39.8941 152.97 40.1135C153.533 40.3138 154.046 40.6328 154.473 41.0485L153.951 42.1443C153.537 41.7814 153.065 41.4917 152.553 41.2879C152.072 41.11 151.562 41.02 151.049 41.0223C149.997 41.0223 149.186 41.3633 148.619 42.0452C148.051 42.7272 147.767 43.702 147.766 44.9699C147.766 46.2378 148.05 47.2158 148.619 47.9039C149.188 48.5921 149.998 48.938 151.049 48.9418C151.562 48.9459 152.071 48.8578 152.553 48.6818C153.063 48.4795 153.536 48.1918 153.949 47.831L154.466 48.9268C154.038 49.3426 153.525 49.6615 152.962 49.8618C152.349 50.0812 151.701 50.1908 151.049 50.1853C150.156 50.2072 149.273 49.986 148.497 49.5458Z" fill="#7A8AA0"/>
</svg>
