<svg width="200" height="84" viewBox="0 0 200 84" fill="none" xmlns="http://www.w3.org/2000/svg">
<path fill-rule="evenodd" clip-rule="evenodd" d="M67.0153 33.6678C68.9544 36.0515 70.0057 38.995 70 42.0246C70 42.0454 69.9994 42.0662 69.9989 42.0869C69.9978 42.1276 69.9967 42.1676 70 42.2055L69.9605 54.406C69.9597 54.5883 69.9092 54.7673 69.8143 54.925C69.7193 55.0827 69.583 55.2137 69.4192 55.3047C69.2553 55.3958 69.0695 55.4438 68.8804 55.4439C68.6912 55.4441 68.5053 55.3964 68.3413 55.3056L64.1551 52.9731C61.6014 54.7379 58.5062 55.6231 55.3676 55.4862C52.2289 55.3493 49.2292 54.1984 46.8511 52.2185C44.4729 50.2387 42.8545 47.545 42.2562 44.5708C41.6579 41.5966 42.1145 38.5148 43.5525 35.8211C44.9905 33.1274 47.3264 30.9785 50.1843 29.7199C53.0423 28.4614 56.2562 28.1664 59.309 28.8825C62.3618 29.5986 65.0761 31.2841 67.0153 33.6678ZM56.1185 35.0033L49.8096 38.5354L49.7898 38.5544V45.59L56.158 49.1221V42.0913L62.4619 45.571V38.5354L56.1185 35.0033Z" fill="#7A8AA0"/>
<path d="M98.0794 38.5C99.0141 38.5936 99.9168 38.9046 100.722 39.4103L100.741 39.4001C100.802 39.4282 100.856 39.4708 100.899 39.5244C100.942 39.5781 100.973 39.6413 100.988 39.7093C101.004 39.7773 101.004 39.8481 100.989 39.9163C100.974 39.9844 100.944 40.0479 100.902 40.1019L100.605 40.7987C100.57 40.864 100.522 40.9211 100.465 40.9666C100.409 41.0121 100.343 41.0449 100.274 41.0631C100.131 41.1189 99.9739 41.1189 99.8311 41.0631C99.2432 40.7269 98.6048 40.4982 97.9432 40.3867C97.6017 40.4337 97.2797 40.58 97.0139 40.8088C96.6246 41.0885 96.4008 41.353 96.4008 41.5971L96.3716 41.9785C96.3424 42.2531 96.6051 42.5328 97.0917 42.7617L99.2715 43.6516C99.6835 43.8104 100.045 44.0849 100.318 44.445C100.574 44.7899 100.692 45.2263 100.644 45.6604L100.551 46.7436C100.506 47.2963 100.065 47.8896 99.2277 48.5236C98.6047 49.0814 97.8309 49.4227 97.0139 49.5C96.404 49.5 95.5039 49.1813 94.3134 48.5439C94.2427 48.5158 94.1793 48.4708 94.1281 48.4126C94.077 48.3543 94.0395 48.2844 94.0187 48.2084C93.9979 48.1323 93.9944 48.0523 94.0084 47.9746C94.0224 47.8969 94.0535 47.8237 94.0993 47.7607L94.4205 47.0844C94.4493 47.0072 94.4944 46.9378 94.5523 46.8812C94.6102 46.8246 94.6795 46.7823 94.7552 46.7574C94.8308 46.7326 94.9108 46.7257 94.9893 46.7374C95.0678 46.7491 95.1427 46.779 95.2087 46.825C95.8095 47.2023 96.4678 47.4689 97.155 47.6133C97.4946 47.573 97.8167 47.4338 98.0843 47.2115C98.4541 46.942 98.6731 46.6928 98.6731 46.469L98.712 45.9605C98.7412 45.6045 98.4638 45.3044 97.8751 45.0502L95.8218 44.1805C95.4124 44.0093 95.0509 43.7329 94.7708 43.377C94.6413 43.221 94.5435 43.0391 94.4833 42.8425C94.4231 42.6458 94.4017 42.4384 94.4205 42.2328L94.5032 41.2767C94.5486 40.7139 95.0141 40.107 95.8996 39.4561C96.5223 38.9235 97.2796 38.5914 98.0794 38.5Z" fill="#7A8AA0"/>
<path d="M109.898 39.6496C109.108 38.9661 108.425 38.6244 107.849 38.6244C107.078 38.6651 106.353 39.0111 105.83 39.5881L106.229 34.9745C106.259 34.6618 106.118 34.5029 105.81 34.5029H104.715C104.65 34.4955 104.585 34.5023 104.523 34.5228C104.461 34.5434 104.405 34.5771 104.357 34.6218C104.309 34.6665 104.271 34.7212 104.246 34.782C104.221 34.8428 104.208 34.9085 104.21 34.9745L103.004 49.0255C102.974 49.3382 103.115 49.4971 103.423 49.4971H104.518C104.583 49.5045 104.648 49.4977 104.71 49.4772C104.772 49.4566 104.828 49.4229 104.876 49.3782C104.924 49.3335 104.962 49.2788 104.987 49.218C105.013 49.1572 105.025 49.0915 105.023 49.0255L105.629 41.9564C105.676 41.7591 105.764 41.5739 105.885 41.4125C106.007 41.2511 106.16 41.1169 106.335 41.0183C106.646 40.7343 107.035 40.5552 107.451 40.5057C107.838 40.5426 108.198 40.7255 108.46 41.0183C108.611 41.1235 108.735 41.2633 108.822 41.4262C108.91 41.5892 108.959 41.7708 108.965 41.9564L108.354 49.0255C108.344 49.0872 108.348 49.1505 108.366 49.2102C108.385 49.2699 108.417 49.3244 108.46 49.369C108.501 49.4112 108.549 49.4444 108.603 49.4665C108.657 49.4885 108.715 49.499 108.773 49.4971H109.868C109.933 49.5045 109.998 49.4977 110.06 49.4772C110.122 49.4566 110.178 49.4229 110.226 49.3782C110.274 49.3335 110.312 49.2788 110.337 49.218C110.363 49.1572 110.375 49.0915 110.373 49.0255L110.994 41.6386C111.054 40.9824 110.686 40.316 109.898 39.6291V39.6496Z" fill="#7A8AA0"/>
<path d="M157.663 38.8069C157.858 38.8069 157.988 38.894 157.988 39.0735H157.998C158.005 39.1689 157.991 39.2648 157.956 39.3537C157.922 39.4426 157.868 39.5221 157.798 39.5862L154.299 43.6213L157.188 48.7896C157.23 48.8575 157.257 48.9342 157.266 49.014C157.276 49.0938 157.268 49.1747 157.243 49.251C157.227 49.3251 157.185 49.3907 157.125 49.4358C157.066 49.481 156.992 49.5027 156.918 49.4971H155.648C155.499 49.5093 155.349 49.4721 155.221 49.391C155.094 49.3098 154.995 49.1889 154.939 49.0459L152.879 45.1185L152.279 45.7799L152.004 49.0254C152.006 49.0914 151.994 49.1571 151.969 49.2179C151.944 49.2788 151.906 49.3334 151.859 49.3781C151.811 49.4229 151.755 49.4566 151.694 49.4771C151.633 49.4977 151.568 49.5045 151.504 49.4971H150.419C150.114 49.4971 149.974 49.3382 150.004 49.0254L151.204 34.9717C151.206 34.9058 151.222 34.8412 151.251 34.782C151.279 34.7228 151.319 34.6704 151.369 34.6282C151.46 34.5457 151.577 34.5002 151.699 34.5H152.784C153.089 34.5 153.204 34.6589 153.204 34.9717L152.519 42.9497L155.688 39.2734C155.778 39.1314 155.901 39.0145 156.046 38.9331C156.191 38.8517 156.353 38.8083 156.518 38.8069H157.663Z" fill="#7A8AA0"/>
<path d="M131.626 38.5043H130.665C130.555 38.5032 130.449 38.5494 130.367 38.6339C130.323 38.6756 130.287 38.7277 130.262 38.7867C130.237 38.8456 130.222 38.9102 130.22 38.9761L129.686 46.1044C129.651 46.3073 129.58 46.4995 129.479 46.6691C129.377 46.8386 129.246 46.9817 129.094 47.0893C128.829 47.3613 128.498 47.5314 128.146 47.5767C127.81 47.5416 127.494 47.369 127.256 47.0893C127.12 46.9785 127.008 46.8312 126.931 46.6598C126.854 46.4885 126.813 46.298 126.811 46.1044L127.345 38.9761C127.372 38.6598 127.247 38.5043 126.976 38.5043H126.01C125.953 38.4951 125.895 38.5006 125.841 38.5204C125.786 38.5402 125.735 38.5738 125.693 38.6188C125.65 38.6638 125.617 38.7191 125.595 38.7809C125.573 38.8426 125.563 38.9093 125.565 38.9761L125.004 46.3895C124.957 47.0807 125.286 47.7719 125.992 48.4632C126.53 49.0708 127.234 49.4379 127.982 49.5C128.765 49.4141 129.507 49.0524 130.109 48.4632C130.932 47.7685 131.373 47.079 131.444 46.3895L132 38.9761C132 38.6598 131.902 38.5043 131.626 38.5043Z" fill="#7A8AA0"/>
<path d="M147.781 38.5C148.101 38.5197 148.419 38.5789 148.729 38.6767V38.6871C148.973 38.7702 149.047 38.9832 148.973 39.3158L148.803 40.1367C148.746 40.4225 148.568 40.5472 148.268 40.5057C148.093 40.4498 147.913 40.4201 147.733 40.4173C147.393 40.4676 147.076 40.6502 146.832 40.9369C146.687 41.0484 146.562 41.193 146.465 41.3625C146.367 41.5319 146.298 41.7228 146.262 41.9242L145.74 49.0219C145.738 49.0887 145.724 49.1542 145.699 49.2142C145.675 49.2742 145.64 49.3273 145.597 49.3701C145.516 49.4548 145.412 49.5011 145.305 49.5H144.365C144.1 49.5 144 49.3389 144 49.0219L144.544 41.6176C144.592 40.9213 145.005 40.2355 145.775 39.5392C146.335 38.9495 147.037 38.5858 147.781 38.5Z" fill="#7A8AA0"/>
<path d="M90.9885 39.9982C90.9653 39.8462 90.8863 39.7096 90.7684 39.6175C90.6505 39.5254 90.503 39.4851 90.3572 39.505H89.4148C89.2682 39.5044 89.125 39.5515 89.0051 39.6399C88.8852 39.7283 88.7946 39.8535 88.7457 39.9982L85.0751 48.7823C85.0345 48.8564 85.0096 48.9389 85.0023 49.024C84.995 49.1091 85.0053 49.1949 85.0327 49.2755C85.0751 49.3511 85.1381 49.4117 85.2137 49.4495C85.2893 49.4873 85.374 49.5006 85.4568 49.4876H86.3049C86.4573 49.4935 86.6076 49.4491 86.7345 49.3605C86.8613 49.272 86.9584 49.1439 87.0117 48.9943L89.6598 42.0401L90.9885 49.0042C91.017 49.1535 91.0973 49.2865 91.2139 49.3776C91.3304 49.4686 91.4751 49.5113 91.6199 49.4974H92.4445C92.9157 49.4974 93.0759 49.2656 92.9675 48.7971L90.9885 39.9982Z" fill="#7A8AA0"/>
<path d="M138.772 39.6176C138.89 39.7098 138.969 39.8465 138.992 39.9986L140.967 48.7956C141.075 49.2646 140.92 49.4966 140.448 49.4966H139.624C139.478 49.5128 139.332 49.471 139.215 49.3794C139.098 49.2879 139.018 49.1534 138.992 49.0029L137.662 42.0325L135.008 49.0029C134.955 49.1526 134.858 49.2808 134.731 49.3694C134.604 49.458 134.454 49.5025 134.301 49.4966H133.458C133.236 49.4966 133.095 49.4275 133.033 49.2843C133.006 49.2039 132.995 49.1183 133.002 49.0333C133.008 48.9482 133.032 48.8655 133.071 48.7906L136.724 39.9986C136.772 39.8542 136.862 39.729 136.981 39.6405C137.1 39.5521 137.243 39.5047 137.389 39.505H138.36C138.506 39.4851 138.654 39.5255 138.772 39.6176Z" fill="#7A8AA0"/>
<path d="M82.0488 39.6296C81.356 38.9461 80.7575 38.6044 80.2534 38.6044C79.5751 38.6504 78.9397 39.004 78.4844 39.5885L78.8382 34.9751C78.8603 34.6625 78.7365 34.5035 78.4668 34.5035H77.5071C77.4504 34.4953 77.3927 34.5015 77.3382 34.5217C77.2838 34.5419 77.2337 34.5756 77.1916 34.6205C77.1495 34.6654 77.1164 34.7203 77.0945 34.7816C77.0726 34.8428 77.0625 34.9089 77.0649 34.9751L76.0035 49.0255C75.977 49.3382 76.1008 49.4971 76.3706 49.4971H77.3302C77.3868 49.5045 77.4441 49.4977 77.4983 49.4772C77.5524 49.4566 77.6021 49.4229 77.6441 49.3782C77.686 49.3335 77.7192 49.2789 77.7413 49.218C77.7634 49.1572 77.7741 49.0915 77.7724 49.0255L78.3031 41.9568C78.3435 41.7608 78.4181 41.5764 78.5223 41.4151C78.6265 41.2537 78.7581 41.1189 78.909 41.0187C79.1811 40.7347 79.5226 40.5556 79.8863 40.5061C80.226 40.543 80.5415 40.7258 80.7708 41.0187C80.9028 41.1239 81.0116 41.2636 81.0884 41.4266C81.1652 41.5896 81.2079 41.7712 81.213 41.9568L80.6823 49.0255C80.6732 49.0872 80.6769 49.1505 80.693 49.2102C80.7092 49.27 80.7374 49.3244 80.7752 49.369C80.8109 49.4109 80.8537 49.444 80.9008 49.466C80.948 49.4881 80.9986 49.4987 81.0494 49.4971H82.009C82.0657 49.5045 82.123 49.4977 82.1771 49.4772C82.2313 49.4566 82.281 49.4229 82.3229 49.3782C82.3648 49.3335 82.398 49.2789 82.4201 49.218C82.4423 49.1572 82.4529 49.0915 82.4513 49.0255L82.9952 41.6184C83.0439 40.9623 82.721 40.2959 82.0312 39.6091L82.0488 39.6296Z" fill="#7A8AA0"/>
<path d="M118.119 35.5C118.868 35.5 119.714 35.8649 120.659 36.5947L120.674 36.5807C121.614 37.3075 122.055 37.9922 121.994 38.6444L121.339 45.4969C121.235 46.0227 120.94 46.5006 120.501 46.8525C120.402 46.9444 120.272 47.0035 120.133 47.0204C119.993 47.0372 119.851 47.011 119.729 46.9457L119.028 46.5776C118.965 46.5416 118.91 46.493 118.869 46.4354C118.828 46.3777 118.802 46.3125 118.792 46.2444C118.782 46.1762 118.788 46.1069 118.81 46.0413C118.833 45.9757 118.871 45.9154 118.922 45.8649C119.104 45.6967 119.223 45.4797 119.262 45.2453L119.856 38.9099C119.844 38.7003 119.779 38.4962 119.666 38.3136C119.553 38.1309 119.396 37.9747 119.206 37.8571C118.869 37.5352 118.416 37.3352 117.931 37.2935C117.432 37.349 116.963 37.546 116.591 37.8571C116.379 37.9712 116.194 38.1232 116.048 38.3041C115.901 38.4849 115.796 38.691 115.737 38.9099L115.133 45.2593C115.146 45.4694 115.211 45.6739 115.325 45.8566C115.439 46.0394 115.597 46.1953 115.788 46.3121C116.515 46.8358 117.297 47.2901 118.124 47.6677C118.19 47.7016 118.256 47.7355 118.322 47.7694C119.08 48.1597 119.844 48.5528 120.577 48.9814C120.646 49.0105 120.706 49.0521 120.756 49.1037C120.806 49.1553 120.844 49.2157 120.867 49.2812C120.891 49.3467 120.899 49.4159 120.892 49.4846C120.885 49.5532 120.863 49.6198 120.826 49.6801C120.726 49.8751 120.59 50.0531 120.425 50.2065C120.366 50.2839 120.291 50.3497 120.203 50.4001C120.116 50.4504 120.019 50.4844 119.917 50.5C119.642 50.4387 119.384 50.3244 119.161 50.1646C117.901 49.4845 116.733 48.8975 115.783 48.4317C115.058 48.1032 114.396 47.669 113.823 47.146C113.569 46.9414 113.364 46.6901 113.222 46.4085C113.081 46.1268 113.005 45.821 113 45.5109L113.655 38.6584C113.716 37.9922 114.285 37.3214 115.362 36.5947C116.452 35.8649 117.371 35.5 118.119 35.5Z" fill="#7A8AA0"/>
</svg>
